<svg width="64" height="44" viewBox="0 0 64 44" fill="none" xmlns="http://www.w3.org/2000/svg">
<path d="M44.992 14.2617H17.4751C16.8981 14.2617 16.429 14.7325 16.4793 15.2855C17.0824 21.8704 23.4576 27.052 31.2326 27.052C39.0076 27.052 45.3829 21.8704 45.986 15.2855C46.0381 14.7325 45.569 14.2617 44.992 14.2617Z" fill="#FF6633"/>
<path d="M26.2653 4.40841C25.9581 4.40841 25.6529 4.27596 25.4537 4.0218C24.4486 2.75101 22.5388 1.95989 20.4708 1.95989C18.4028 1.95989 16.493 2.74922 15.4879 4.0218C15.1472 4.45316 14.5069 4.53549 14.0602 4.20795C13.6116 3.88041 13.526 3.2647 13.8666 2.83513C15.2701 1.05959 17.7383 0 20.4708 0C23.2033 0 25.6715 1.05959 27.0768 2.83513C27.4175 3.26648 27.33 3.88041 26.8832 4.20795C26.6971 4.34398 26.4812 4.40841 26.2653 4.40841Z" fill="#414141"/>
<path d="M47.7877 4.40841C47.4806 4.40841 47.1753 4.27596 46.9762 4.0218C45.971 2.75101 44.0612 1.95989 41.9932 1.95989C39.9252 1.95989 38.0155 2.74922 37.0103 4.0218C36.6697 4.45316 36.0294 4.53549 35.5826 4.20795C35.134 3.88041 35.0484 3.2647 35.389 2.83513C36.7925 1.05959 39.2607 0 41.9932 0C44.7258 0 47.1939 1.05959 48.5993 2.83513C48.9399 3.26648 48.8524 3.88041 48.4057 4.20795C48.2196 4.34398 48.0037 4.40841 47.7877 4.40841Z" fill="#414141"/>
<path d="M2.85197 30.0033L2.45178 31.0217C2.41641 31.1058 2.28797 31.1398 2.16885 31.0986C1.89708 31.0199 1.61601 30.8785 1.32192 30.6709C1.02968 30.4668 0.798866 30.2503 0.627619 30.0229C0.368886 29.6775 0.188332 29.3016 0.087817 28.9007C-0.00897503 28.4962 -0.0238661 28.106 0.0338368 27.723C0.0952625 27.3435 0.236728 26.9766 0.456371 26.6258C0.677876 26.275 0.962668 25.9761 1.32005 25.7291C1.67558 25.4821 2.06089 25.3138 2.47597 25.2226C2.89106 25.1313 3.29871 25.117 3.69332 25.1814C4.09352 25.2458 4.47324 25.3836 4.83807 25.6002C5.20663 25.815 5.5212 26.0978 5.77993 26.4432C5.9456 26.6652 6.0852 26.9462 6.19316 27.2809C6.30484 27.6156 6.36068 27.9288 6.35882 28.2223C6.36068 28.3405 6.2732 28.43 6.17641 28.4336L5.04841 28.464C4.94045 28.464 4.8511 28.3673 4.8511 28.2295C4.85482 28.0631 4.83249 27.8948 4.77851 27.7194C4.72453 27.544 4.65566 27.399 4.57003 27.2845C4.29269 26.9158 3.92413 26.692 3.46251 26.6204C3.00461 26.547 2.58766 26.6437 2.20421 26.9086C1.82449 27.1717 1.5974 27.5225 1.52667 27.9646C1.45966 28.4031 1.5639 28.8112 1.84124 29.1799C1.92687 29.2945 2.04413 29.4019 2.19677 29.5021C2.35126 29.6041 2.50203 29.6811 2.65653 29.7294C2.8073 29.7759 2.89106 29.8959 2.85197 30.0033Z" fill="#414141"/>
<path d="M7.35455 28.8363C7.44761 28.7378 7.56674 28.7342 7.66726 28.8237L10.5636 31.3832C10.666 31.4727 10.6697 31.5873 10.5766 31.6839L9.92512 32.3641C9.82647 32.4679 9.72037 32.4715 9.61241 32.3766L7.65795 30.6494L6.97296 31.3653L8.45649 32.6773C8.56817 32.7757 8.57934 32.8939 8.47882 32.9977L7.94088 33.5597C7.84781 33.6581 7.7231 33.6564 7.61328 33.5597L6.12975 32.2477L5.42615 32.9852L7.38061 34.7124C7.51835 34.8341 7.52952 34.9916 7.41225 35.1115L6.80171 35.7505C6.71051 35.8453 6.58952 35.8471 6.489 35.7576L3.53312 33.148C3.43074 33.0585 3.4233 32.9476 3.51637 32.8491L7.35455 28.8363Z" fill="#414141"/>
<path d="M13.6204 37.2577C13.6129 37.5422 13.5292 37.8089 13.3672 38.0577C13.0601 38.532 12.6618 38.8041 12.1722 38.8757C11.6864 38.9491 11.1559 38.8166 10.5845 38.473L8.57232 37.2666C8.47925 37.2111 8.46249 37.1395 8.51834 37.0536L11.5822 32.3284C11.638 32.2425 11.7125 32.2264 11.8037 32.2819L13.6669 33.3987C14.2123 33.7263 14.5529 34.1057 14.6907 34.5389C14.8284 34.972 14.7503 35.4177 14.4562 35.8723C14.2198 36.2374 13.8065 36.4773 13.3914 36.4898C13.5515 36.7189 13.6278 36.9731 13.6204 37.2577ZM11.2862 37.3561C11.6157 37.5548 11.9545 37.4814 12.1555 37.1717C12.3528 36.8675 12.2653 36.5542 11.934 36.3574L11.0889 35.8508L10.4411 36.8496L11.2862 37.3561ZM12.2374 34.0825L11.6901 34.9255L12.3882 35.3443C12.6692 35.5126 12.9484 35.4535 13.116 35.194C13.2835 34.9344 13.2146 34.6695 12.9335 34.5013L12.2374 34.0825Z" fill="#414141"/>
<path d="M16.4649 35.1866C16.5171 35.0631 16.625 35.0184 16.7535 35.0685L20.4036 36.4771C20.5321 36.5272 20.5786 36.6311 20.5265 36.7546L20.1691 37.6119C20.1151 37.7425 20.0165 37.7819 19.8806 37.73L17.4161 36.7796L17.0401 37.6817L18.9108 38.403C19.0504 38.4567 19.1044 38.5641 19.0504 38.6948L18.7545 39.4035C18.7023 39.527 18.5869 39.5682 18.4473 39.5145L16.5766 38.7932L16.1895 39.7221L18.6539 40.6725C18.8289 40.7406 18.8959 40.882 18.8308 41.0359L18.4939 41.8413C18.4436 41.9612 18.3319 42.0042 18.2035 41.9541L14.4788 40.5168C14.3504 40.4667 14.302 40.3665 14.3541 40.243L16.4649 35.1866Z" fill="#414141"/>
<path d="M23.9771 37.3452C24.6137 37.4794 25.0884 37.7694 25.4011 38.2186C25.7138 38.6643 25.805 39.1887 25.6654 39.7937C25.5295 40.3915 25.2187 40.8282 24.7403 41.1057C24.2619 41.3795 23.7072 41.4511 23.0688 41.3169L22.354 41.1665L21.9966 42.7291C21.9668 42.8579 21.8682 42.9206 21.7248 42.8902L20.6787 42.67C20.5447 42.6414 20.4852 42.5465 20.5131 42.4176L21.7286 37.0964C21.7565 36.9747 21.8626 36.9031 21.9892 36.9299L22.5159 37.0409L23.0464 37.1537L23.9771 37.3452ZM23.3033 40.0103C23.5118 40.055 23.7016 40.0246 23.8673 39.9244C24.0367 39.8241 24.1428 39.6738 24.1893 39.4733C24.2359 39.2729 24.2042 39.0939 24.0944 38.9346C23.9902 38.7717 23.8301 38.6679 23.6216 38.6249L22.9683 38.4871L22.6518 39.8742L23.3033 40.0103Z" fill="#414141"/>
<path d="M31.2779 38.1312C31.4082 38.1383 31.4901 38.2314 31.4827 38.3549L31.17 43.7996C31.1625 43.9321 31.0788 44.009 30.941 44.0001L29.8726 43.9428C29.7255 43.9356 29.6474 43.8497 29.6548 43.7173L29.7479 42.0957L29.1262 42.0635L28.1378 43.6708C28.0503 43.8068 27.9945 43.8444 27.8735 43.8372L26.6245 43.771C26.4905 43.7638 26.4235 43.6314 26.496 43.5186L27.6743 41.6679C27.0973 41.2956 26.7846 40.671 26.8274 39.9353C26.8627 39.3214 27.0917 38.8382 27.5179 38.4891C27.9442 38.1365 28.4859 37.9808 29.1374 38.0148L31.0043 38.1133L31.2779 38.1312ZM29.8205 40.8392L29.9042 39.3769L29.1243 39.3357C28.9065 39.325 28.7241 39.3823 28.5789 39.5076C28.4337 39.6328 28.3537 39.7975 28.3407 40.0069C28.3295 40.2163 28.3891 40.3953 28.5194 40.551C28.6534 40.7032 28.8284 40.7855 29.0406 40.7962L29.8205 40.8392Z" fill="#414141"/>
<path d="M37.8854 37.5529C37.9896 37.5404 38.0492 37.5869 38.0622 37.6907L38.7509 43.2178C38.764 43.3216 38.7156 43.3789 38.6132 43.3914L37.4387 43.5274C37.3344 43.54 37.2749 43.4934 37.2618 43.3896L36.9882 41.1935L34.7173 41.4548L34.9909 43.6509C35.004 43.7548 34.9556 43.812 34.8532 43.8246L33.6824 43.9588C33.5744 43.9713 33.5149 43.9248 33.5018 43.821L32.8131 38.2939C32.8001 38.1901 32.8485 38.1328 32.9564 38.1203L34.1272 37.986C34.2315 37.9735 34.291 38.0201 34.3041 38.1239L34.5554 40.141L36.8263 39.8797L36.575 37.8625C36.5619 37.7587 36.6103 37.7015 36.7127 37.6889L37.8854 37.5529Z" fill="#414141"/>
<path d="M39.7982 38.9776C39.8317 38.5642 39.9396 38.1865 40.1183 37.8464C40.3008 37.5046 40.552 37.1967 40.8741 36.9282C41.1942 36.6562 41.5609 36.4557 41.9779 36.3233C42.3948 36.1908 42.8136 36.1425 43.2362 36.1783C43.6606 36.2087 44.0533 36.3125 44.407 36.4844C44.7644 36.6544 45.0864 36.896 45.3656 37.2092C45.6485 37.5171 45.857 37.8697 45.9947 38.2706C46.1771 38.8022 46.2106 39.3338 46.0971 39.86C45.9836 40.388 45.7434 40.8534 45.3656 41.2579C44.9933 41.6606 44.528 41.947 43.9714 42.1242C43.5545 42.2566 43.1356 42.305 42.7112 42.2745C42.285 42.2405 41.8922 42.1367 41.5349 41.9667C41.1812 41.7949 40.861 41.555 40.58 41.2489C40.3026 40.9393 40.0923 40.5867 39.9564 40.1894C39.8168 39.7884 39.7665 39.3857 39.7982 38.9776ZM42.218 40.6601C42.6256 40.857 43.0519 40.882 43.4968 40.7406C43.9379 40.601 44.2599 40.3361 44.4665 39.9459C44.6713 39.554 44.7048 39.1512 44.5577 38.727C44.4107 38.2993 44.1333 37.9896 43.7257 37.7927C43.3181 37.5959 42.8937 37.5654 42.4544 37.705C42.0132 37.8446 41.6875 38.1131 41.4827 38.5051C41.278 38.8971 41.2463 39.3052 41.3934 39.7312C41.5386 40.1571 41.8122 40.4632 42.218 40.6601Z" fill="#414141"/>
<path d="M49.9473 32.774C50.0478 32.7185 50.1725 32.7561 50.2377 32.8635L53.067 37.5816C53.1284 37.6818 53.0949 37.8124 52.9888 37.8697L52.0507 38.3888C51.9464 38.4478 51.818 38.4103 51.7566 38.31L50.8017 36.7188C50.6844 37.1037 50.3978 37.4706 49.9938 37.6961C49.3703 38.0415 48.7486 38.131 48.1306 37.9682C47.5108 37.8017 47.01 37.4026 46.6303 36.769L45.7722 35.3371C45.7108 35.2368 45.7387 35.1044 45.8374 35.0507L46.7681 34.5352C46.8835 34.4708 47.0193 34.503 47.0826 34.6104L47.9389 36.0387C48.2665 36.5846 48.797 36.7224 49.3665 36.4074C49.6532 36.2481 49.8282 36.0441 49.9045 35.7935C49.9808 35.5429 49.9417 35.2852 49.7854 35.0238L48.9254 33.5884C48.864 33.4882 48.8956 33.3539 48.998 33.2984L49.9473 32.774Z" fill="#414141"/>
<path d="M59.2314 32.6003C59.3747 32.6343 59.4436 32.7632 59.3356 32.8563L58.3007 33.7458C58.2356 33.8013 58.1574 33.8264 58.0736 33.8156L55.3876 33.1462L54.7455 33.6975L56.2309 35.2959C56.3035 35.3746 56.2997 35.448 56.2216 35.5142L55.3337 36.2785C55.2518 36.3483 55.1755 36.3447 55.1029 36.266L51.2498 32.1189C51.1809 32.0437 51.1846 31.9703 51.2647 31.9005L52.1526 31.1362C52.2307 31.07 52.3071 31.0736 52.3778 31.1488L53.7924 32.6719L54.295 32.2406L54.0586 29.699C54.0437 29.545 54.0921 29.4824 54.2019 29.3875L55.2276 28.5069C55.343 28.4085 55.4696 28.4837 55.4826 28.643L55.7599 31.7484L59.2314 32.6003Z" fill="#414141"/>
<path d="M63.8453 26.6723C63.9886 26.7063 64.0463 26.8083 63.9533 26.9372L63.2701 27.8715C63.2031 27.9628 63.0747 28.0003 62.9518 27.9717L62.1366 27.7444L60.9173 29.4107L61.4143 30.0658C61.4907 30.1571 61.4962 30.2896 61.4218 30.3898L60.7405 31.3205C60.6512 31.4422 60.5339 31.4369 60.4446 31.3116L57.0959 26.4217C57.0215 26.3071 57.0252 26.1765 57.0922 26.0852L57.6004 25.3907C57.6674 25.2994 57.8014 25.2565 57.9261 25.2869L63.8453 26.6723ZM60.13 28.3762L60.8559 27.3828L58.9778 26.8548L60.13 28.3762Z" fill="#414141"/>
</svg>
